<svg width="57" height="51" viewBox="0 0 57 51" fill="none" xmlns="http://www.w3.org/2000/svg">
<path fill-rule="evenodd" clip-rule="evenodd" d="M28.5 28.6875C31.0196 28.6875 33.4359 27.792 35.2175 26.1979C36.9991 24.6038 38 22.4418 38 20.1875C38 17.9332 36.9991 15.7712 35.2175 14.1771C33.4359 12.583 31.0196 11.6875 28.5 11.6875C25.9804 11.6875 23.5641 12.583 21.7825 14.1771C20.0009 15.7712 19 17.9332 19 20.1875C19 22.4418 20.0009 24.6038 21.7825 26.1979C23.5641 27.792 25.9804 28.6875 28.5 28.6875ZM28.5 26.5625C29.4357 26.5625 30.3622 26.3976 31.2266 26.0772C32.0911 25.7569 32.8765 25.2873 33.5381 24.6953C34.1998 24.1033 34.7246 23.4006 35.0826 22.6271C35.4407 21.8537 35.625 21.0247 35.625 20.1875C35.625 19.3503 35.4407 18.5213 35.0826 17.7479C34.7246 16.9744 34.1998 16.2717 33.5381 15.6797C32.8765 15.0877 32.0911 14.6181 31.2266 14.2978C30.3622 13.9774 29.4357 13.8125 28.5 13.8125C26.6103 13.8125 24.7981 14.4842 23.4619 15.6797C22.1257 16.8752 21.375 18.4967 21.375 20.1875C21.375 21.8783 22.1257 23.4998 23.4619 24.6953C24.7981 25.8909 26.6103 26.5625 28.5 26.5625Z" fill="#F24E1E"/>
<path fill-rule="evenodd" clip-rule="evenodd" d="M52.25 25.5C52.25 37.2364 41.6171 46.75 28.5 46.75C15.3829 46.75 4.75 37.2364 4.75 25.5C4.75 13.7636 15.3829 4.25 28.5 4.25C41.6171 4.25 52.25 13.7636 52.25 25.5ZM39.9356 41.6606C36.5168 43.6024 32.5495 44.6308 28.5 44.625C24.3538 44.6307 20.2961 43.5524 16.8257 41.5225C16.5407 41.2038 16.2509 40.8744 15.9588 40.5344C15.6194 40.136 15.4362 39.6487 15.4375 39.1478C15.4375 38.0035 16.3566 37.0441 17.5857 36.8836C25.7141 35.8211 31.3108 35.9125 39.4499 36.9208C40.0394 36.9973 40.578 37.262 40.9663 37.666C41.3546 38.0701 41.5664 38.5862 41.5625 39.1191C41.5625 39.6291 41.3666 40.1242 41.0127 40.511C40.6481 40.9084 40.2883 41.2919 39.9356 41.6606ZM43.9197 38.7451C43.7297 36.7561 42.0422 35.0965 39.7753 34.816C31.4438 33.7843 25.6203 33.6855 17.2425 34.7809C14.9625 35.0784 13.2822 36.7529 13.0827 38.7472C9.25339 35.189 7.11745 30.4396 7.125 25.5C7.125 14.9377 16.6951 6.375 28.5 6.375C40.3049 6.375 49.875 14.9377 49.875 25.5C49.8826 30.4386 47.7476 35.1871 43.9197 38.7451Z" fill="#F24E1E"/>
</svg>
